<?xml version="1.0" encoding="utf-8"?>
<!-- Generator: Adobe Illustrator 23.0.6, SVG Export Plug-In . SVG Version: 6.00 Build 0)  -->
<svg version="1.1" id="Capa_1" xmlns="http://www.w3.org/2000/svg" xmlns:xlink="http://www.w3.org/1999/xlink" x="0px" y="0px"
	 viewBox="0 0 1141.9 218.2" style="enable-background:new 0 0 1141.9 218.2;" xml:space="preserve">
<style type="text/css">
	.st0{fill:#FFFFFF;}
	.st1{fill:#60ACBC;}
	.st2{fill:url(#SVGID_1_);}
</style>
<g>
	<g>
		<path class="st0" d="M541.8,68.6c2.7,3.6,4,8,4,13.4c0,7.6-2.3,13.4-7.1,17.3c-4.8,3.9-11.6,5.9-20.4,5.9h-29.8
			c-0.8,0-1.6-0.3-2.1-0.9c-0.6-0.6-0.9-1.1-0.9-1.8v-80c0-0.8,0.3-1.3,0.9-1.9c0.6-0.6,1.3-0.8,2.1-0.8h28.4c8.6,0,15.3,1.9,20,5.8
			c4.7,3.8,7,9.4,7,16.6c0,4.7-1.2,8.7-3.6,11.9c-2.3,3.2-5.7,5.7-9.9,7.4C535.3,62.7,539.1,65.1,541.8,68.6z M490.6,59.4h25.8
			c7.2,0,12.8-1.6,16.6-4.6c3.8-3,5.7-7.5,5.7-13.3c0-11.3-7.5-17-22.3-17h-25.8V59.4z M535.1,96.1c3.7-2.9,5.5-7.4,5.5-13.4
			c0-6-1.9-10.6-5.6-13.7c-3.8-3.1-9.4-4.7-16.7-4.7h-27.5v36.1h27.5C525.8,100.4,531.4,99,535.1,96.1z"/>
		<path class="st0" d="M591.1,45.4c1,0,1.7,0.2,2,0.6s0.6,0.9,0.6,1.7c0,1.3-0.9,2.2-2.6,2.5l-3.6,0.2c-5.9,0.6-10.4,2.8-13.3,6.6
			c-3,3.8-4.5,8.1-4.5,13v33c0,0.9-0.2,1.6-0.7,2c-0.4,0.4-1.1,0.8-1.9,0.8c-0.8,0-1.4-0.2-1.9-0.8c-0.4-0.4-0.7-1.1-0.7-2V48.2
			c0-1.9,0.9-2.8,2.6-2.8c0.8,0,1.3,0.2,1.8,0.8c0.4,0.4,0.8,1.1,0.8,2v8.7c3.5-6.9,9.7-10.7,18.8-11.4l1.7-0.1H591.1z"/>
		<path class="st0" d="M648.8,94.3c0.4,0.4,0.6,1,0.6,1.6c0,0.8-0.3,1.6-0.9,2.3c-0.6,0.8-1.7,1.7-3.2,2.6
			c-5.8,3.5-11.8,5.2-18.1,5.2c-8.8,0-15.7-2.7-20.7-8.1c-5-5.4-7.6-12.8-7.6-22.3c0-6,1.1-11.4,3.3-15.9c2.2-4.6,5.5-8.1,9.6-10.7
			c4.1-2.6,8.8-3.8,14.2-3.8c7.5,0,13.3,2.5,17.5,7.2s6.5,11.5,6.5,19.9c0,1.4-0.3,2.5-0.9,3.1c-0.6,0.7-1.6,1-3,1h-41.6
			c0.1,7.9,2.1,13.9,6,18.3c3.9,4.2,9.4,6.4,16.5,6.4c3.9,0,7-0.6,9.6-1.6s5-2.5,7.5-4.1c1.7-1.1,2.8-1.7,3.2-1.7
			C647.9,93.6,648.3,93.8,648.8,94.3z M611.2,55.6c-3.8,3.8-5.9,9.1-6.6,16.1h40.5c-0.1-7-1.9-12.4-5.2-16.2s-7.9-5.6-13.9-5.6
			C619.9,49.9,615,51.8,611.2,55.6z"/>
		<path class="st0" d="M709,66.9v36c0,0.9-0.2,1.6-0.7,2c-0.4,0.4-1.1,0.8-1.9,0.8s-1.4-0.2-1.9-0.8s-0.8-1.2-0.8-2v-8.5
			c-1.8,3.7-4.3,6.6-7.7,8.6c-3.3,2-7.1,3-11.5,3c-3.7,0-7.1-0.8-10.3-2.3c-3.1-1.6-5.6-3.7-7.4-6.4c-1.8-2.7-2.7-5.7-2.7-8.9
			c0-4.3,1.1-7.7,3.5-10.1c2.3-2.3,6.1-4.1,11.4-5.1c5.2-1,12.7-1.6,22.2-1.6h2.5v-5.1c0-5.7-1.1-9.9-3.5-12.5
			c-2.3-2.6-5.9-3.9-10.8-3.9c-3.9,0-7.4,0.6-10.4,1.6s-5.5,2.1-7.2,3.5c-0.3,0.2-1,0.7-2,1.3c-1,0.7-1.8,1-2.5,1
			c-0.6,0-1.1-0.2-1.6-0.7s-0.7-1-0.7-1.7c0-1.6,1.4-3.1,4.2-4.8c2.8-1.7,5.9-3,9.3-3.9s6.7-1.3,10-1.3
			C702.3,45.1,709,52.4,709,66.9z M694.5,98.3c2.9-1.8,5.1-4.1,6.8-7.2c1.7-3,2.5-6.6,2.5-10.4v-4.3h-2.3c-8.5,0-14.9,0.3-19.4,1
			c-4.5,0.7-7.6,1.9-9.4,3.5c-1.8,1.7-2.7,4.1-2.7,7.4c0,3.7,1.3,6.8,4.1,9.1c2.8,2.3,6.2,3.6,10.4,3.6
			C688.2,101,691.6,100.1,694.5,98.3z"/>
		<path class="st0" d="M772.8,103.6c0,0.6-0.2,1.1-0.6,1.6c-0.4,0.4-0.9,0.7-1.6,0.7c-0.6,0-1.2-0.2-1.9-0.8l-34.2-28.8V103
			c0,0.8-0.2,1.4-0.8,2c-0.4,0.6-1.1,0.8-1.8,0.8c-0.8,0-1.4-0.2-1.9-0.8c-0.4-0.4-0.7-1.1-0.7-2V22c0-0.9,0.2-1.6,0.7-2
			c0.4-0.4,1.1-0.8,1.9-0.8c0.8,0,1.3,0.2,1.8,0.8c0.4,0.6,0.8,1.2,0.8,2v51.9L766,46.3c0.7-0.4,1.2-0.8,1.8-0.8
			c0.7,0,1.2,0.2,1.7,0.8c0.4,0.4,0.8,1,0.8,1.7c0,0.8-0.4,1.4-1.2,2.2L740.7,75l30.8,26C772.2,101.9,772.8,102.7,772.8,103.6z"/>
		<path class="st0" d="M825.2,49c3.9,2.6,7,6.1,9.1,10.7c2.2,4.6,3.2,9.9,3.2,16.1c0,6-1.1,11.4-3.2,15.9c-2.2,4.6-5.2,8.1-9.1,10.6
			s-8.5,3.8-13.7,3.8c-4.9,0-9.1-1.1-12.6-3.2c-3.5-2.2-6.1-5.4-7.9-9.5v31.4c0,0.9-0.2,1.6-0.7,2c-0.4,0.4-1.1,0.8-1.9,0.8
			c-1.7,0-2.6-0.9-2.6-2.8V48.1c0-0.8,0.2-1.4,0.7-1.9c0.4-0.4,1.1-0.8,1.9-0.8s1.4,0.2,1.9,0.8c0.4,0.4,0.7,1.1,0.7,1.9v9.6
			c1.8-4,4.5-7.1,7.9-9.3c3.5-2.1,7.7-3.2,12.6-3.2C816.7,45.1,821.3,46.5,825.2,49z M826.6,94.5c3.7-4.3,5.5-10.6,5.5-18.7
			c0-8-1.8-14.4-5.5-18.8c-3.7-4.5-8.7-6.8-15.2-6.8c-6.6,0-11.7,2.2-15.3,6.6s-5.4,10.7-5.4,18.8s1.8,14.4,5.4,18.8
			s8.6,6.7,15.2,6.7C817.9,101.1,823.1,98.9,826.6,94.5z"/>
		<path class="st0" d="M862.8,102.2c-3.9-2.5-7-6-9.1-10.6c-2.2-4.6-3.2-9.9-3.2-16.1c0-6,1.1-11.4,3.2-15.9
			c2.2-4.6,5.2-8.1,9.1-10.6s8.5-3.8,13.7-3.8c5.1,0,9.7,1.2,13.7,3.8c3.9,2.5,7,6,9.1,10.6c2.2,4.6,3.2,9.9,3.2,15.9
			c0,6.1-1.1,11.5-3.2,16.1c-2.2,4.6-5.2,8.1-9.1,10.6s-8.5,3.8-13.7,3.8C871.2,106,866.7,104.8,862.8,102.2z M891.7,94.5
			c3.6-4.3,5.4-10.7,5.4-19c0-8-1.8-14.2-5.5-18.7c-3.7-4.5-8.7-6.7-15.2-6.7s-11.5,2.2-15.2,6.7c-3.7,4.5-5.5,10.7-5.5,18.7
			c0,8.3,1.8,14.5,5.4,19c3.6,4.3,8.7,6.6,15.2,6.6C883,101.1,888.1,98.9,891.7,94.5z"/>
		<path class="st0" d="M918.5,29.7c-0.9-0.8-1.3-1.9-1.3-3.1c0-1.3,0.4-2.5,1.2-3.2c0.9-0.8,1.9-1.2,3.2-1.2s2.3,0.4,3.2,1.2
			c0.9,0.8,1.2,1.9,1.2,3.2s-0.4,2.3-1.3,3.1c-0.9,0.8-1.9,1.2-3.1,1.2C920.4,30.8,919.4,30.5,918.5,29.7z M919.8,105
			c-0.4-0.4-0.7-1.1-0.7-2V48.1c0-0.8,0.2-1.4,0.7-1.9c0.4-0.4,1.1-0.8,1.9-0.8c0.8,0,1.4,0.2,1.9,0.8c0.4,0.4,0.7,1.1,0.7,1.9V103
			c0,0.9-0.2,1.6-0.7,2c-0.4,0.4-1.1,0.8-1.9,0.8C920.9,105.8,920.2,105.6,919.8,105z"/>
		<path class="st0" d="M991.4,67.4V103c0,1.9-0.9,2.8-2.6,2.8c-0.8,0-1.4-0.2-1.9-0.8c-0.4-0.4-0.7-1.1-0.7-2V67.9
			c0-6.2-1.2-10.7-3.8-13.6c-2.5-2.9-6.6-4.3-12-4.3c-6.2,0-11.2,1.9-14.9,5.8c-3.8,3.8-5.6,8.9-5.6,15.3v31.9c0,0.9-0.2,1.6-0.7,2
			c-0.4,0.4-1.1,0.8-1.9,0.8c-0.8,0-1.4-0.2-1.9-0.8c-0.4-0.4-0.7-1.1-0.7-2V48.2c0-1.9,0.9-2.8,2.6-2.8c0.8,0,1.4,0.2,1.8,0.8
			c0.4,0.4,0.6,1.1,0.6,2v8.9c1.8-3.9,4.5-6.8,8-8.9c3.6-2,7.7-3.1,12.3-3.1C984.2,45.1,991.4,52.6,991.4,67.4z"/>
		<path class="st0" d="M1038.3,103.4c0,1.8-1.1,2.6-3.5,2.3l-3.1-0.2c-6-0.4-10.5-2.2-13.3-5.5c-2.8-3.2-4.2-8.4-4.2-15.2V51h-10
			c-0.6,0-1-0.2-1.4-0.6c-0.4-0.4-0.6-0.9-0.6-1.4c0-0.7,0.2-1.2,0.6-1.7c0.4-0.4,0.9-0.7,1.4-0.7h10V30.5c0-0.9,0.2-1.6,0.8-2
			c0.4-0.4,1.1-0.8,1.8-0.8c0.7,0,1.3,0.2,1.8,0.8c0.4,0.4,0.8,1.1,0.8,2v16.1h16.1c0.6,0,1,0.2,1.4,0.7c0.4,0.4,0.6,1,0.6,1.7
			c0,0.6-0.2,1-0.6,1.4c-0.3,0.4-0.9,0.6-1.6,0.6h-16.2v34c0,5.5,1.1,9.4,3.2,11.7s5.5,3.7,9.9,4.1l3.2,0.2
			C1037.4,101.2,1038.3,102,1038.3,103.4z"/>
		<path class="st0" d="M1058.5,104.7c-3.1-0.9-6-2.2-8.5-3.8c-1.6-1-2.7-1.9-3.2-2.6c-0.6-0.7-0.9-1.4-0.9-2.3
			c0-0.6,0.2-1.1,0.6-1.6c0.4-0.4,0.9-0.7,1.4-0.7c0.4,0,0.9,0.2,1.7,0.7c0.7,0.4,1.1,0.8,1.3,0.9c2.3,1.7,4.8,3.1,7.4,4.1
			c2.6,1.1,5.8,1.7,9.6,1.7c5.2,0,9.3-1,12-2.9c2.8-1.9,4.2-4.7,4.2-8.3c0-2.1-0.6-3.8-1.6-5.2c-1-1.3-2.7-2.6-4.9-3.6
			c-2.3-1-5.6-2-9.8-3c-7.1-1.6-12.2-3.7-15.3-6.1c-3-2.5-4.6-5.8-4.6-9.9c0-5,2-9,5.9-12.3c3.9-3.1,8.9-4.7,15.2-4.7
			c3,0,5.8,0.4,8.6,1.2c2.8,0.8,5.1,1.9,7.2,3.3c1.6,1.1,2.7,2.1,3.3,3c0.7,0.9,1,1.7,1,2.6c0,0.6-0.2,1.1-0.6,1.6
			c-0.4,0.4-0.9,0.7-1.4,0.7c-0.7,0-1.7-0.6-3.1-1.8c-2.1-1.6-4.3-2.9-6.6-4c-2.3-1-5.1-1.6-8.7-1.6c-4.6,0-8.1,1.1-10.9,3.2
			c-2.8,2.1-4.1,4.9-4.1,8.4c0,2.1,0.4,3.8,1.3,5.1c0.9,1.3,2.5,2.5,4.6,3.5c2.1,1,5.1,1.9,9.1,2.8c5.6,1.3,9.8,2.8,12.8,4.1
			c3,1.4,5.1,3.1,6.4,5.1c1.2,2,1.9,4.5,1.9,7.6c0,4.8-2,8.7-6,11.7c-4,2.9-9.3,4.5-15.9,4.5C1064.7,106,1061.6,105.6,1058.5,104.7z
			"/>
	</g>
	<g>
		<path class="st0" d="M494.2,200.2c-2.6-0.9-4.6-2.1-6-3.7c-0.3-0.3-0.6-0.8-0.6-1.3c0-0.3,0.1-0.6,0.2-0.8
			c0.1-0.2,0.3-0.3,0.6-0.3s0.6,0.1,1,0.4c3.7,3.1,7.9,4.7,12.6,4.7c3.6,0,6.4-0.8,8.4-2.2c2-1.4,2.9-3.6,2.9-6.2
			c0-1.6-0.4-2.8-1.4-3.8c-1-1-2.1-1.7-3.6-2.2s-3.3-1-5.7-1.6c-3.2-0.8-5.7-1.4-7.5-2.1c-1.7-0.6-3.2-1.6-4.6-3
			c-1.3-1.4-2-3.3-2-5.9c0-2.1,0.6-4.1,1.7-5.7c1.1-1.7,2.8-2.9,4.8-3.8c2.1-0.9,4.5-1.3,7.1-1.3c2.6,0,5,0.4,7.2,1.3
			c2.3,0.9,4.1,2.1,5.6,3.7c0.3,0.4,0.6,0.9,0.6,1.3c0,0.3-0.1,0.6-0.2,0.8c-0.2,0.2-0.3,0.3-0.6,0.3c-0.3,0-0.7-0.1-1-0.4
			c-2.1-1.8-4-3-5.7-3.7c-1.7-0.7-3.7-1-5.9-1c-3.6,0-6.2,0.8-8.3,2.3c-2,1.6-3,3.7-3,6.5c0,1.7,0.4,3,1.3,4c0.9,1,2,1.9,3.3,2.5
			s3,1.1,5.1,1.7l2.5,0.6c2.7,0.6,4.9,1.2,6.6,1.8c1.7,0.7,3.1,1.6,4.2,2.9c1.2,1.3,1.8,3,1.8,5.2c0,2.1-0.6,3.9-1.7,5.6
			c-1.1,1.6-2.8,2.9-4.8,3.8c-2.1,0.9-4.5,1.3-7.1,1.3C499.4,201.6,496.8,201.1,494.2,200.2z"/>
		<path class="st0" d="M533.6,200.7c-0.3-0.2-0.4-0.6-0.4-0.9v-36.9c0-0.3,0.1-0.7,0.4-0.9c0.3-0.2,0.6-0.3,1-0.3h21.5
			c0.3,0,0.6,0.1,0.8,0.3c0.2,0.2,0.3,0.4,0.3,0.8s-0.1,0.6-0.3,0.8c-0.2,0.2-0.4,0.3-0.8,0.3h-20.6v16.2h19.4
			c0.3,0,0.6,0.1,0.8,0.3c0.2,0.2,0.2,0.4,0.2,0.8s-0.1,0.6-0.2,0.8c-0.2,0.2-0.4,0.3-0.8,0.3h-19.4V199h20.6c0.3,0,0.6,0.1,0.8,0.2
			c0.2,0.2,0.3,0.4,0.3,0.8s-0.1,0.6-0.3,0.8c-0.2,0.2-0.4,0.3-0.8,0.3h-21.5C534.2,201.1,533.9,201,533.6,200.7z"/>
		<path class="st0" d="M574.9,201c-0.2-0.2-0.3-0.6-0.3-1v-37.1c0-0.3,0.1-0.7,0.4-0.9c0.3-0.2,0.6-0.3,1-0.3h12.8
			c4,0,7.2,1,9.5,2.9s3.3,4.7,3.3,8.3c0,3.6-1.1,6.4-3.3,8.4c-2.2,2-5.4,3-9.4,3h-11.9v15.9c0,0.4-0.1,0.8-0.3,1
			c-0.2,0.2-0.4,0.3-0.9,0.3C575.5,201.4,575.2,201.2,574.9,201z M588.8,181.9c3.5,0,6-0.8,7.8-2.3c1.8-1.6,2.6-3.8,2.6-6.8
			c0-3-0.9-5.2-2.6-6.7c-1.8-1.6-4.3-2.2-7.8-2.2h-11.8v18.1H588.8z"/>
		<path class="st0" d="M628.2,201c-0.2-0.2-0.3-0.6-0.3-0.9v-36.2h-13.7c-0.3,0-0.6-0.1-0.8-0.3c-0.2-0.2-0.2-0.4-0.2-0.8
			s0.1-0.6,0.2-0.8c0.2-0.2,0.4-0.3,0.8-0.3h29.7c0.2,0,0.6,0.1,0.8,0.3c0.2,0.2,0.3,0.4,0.3,0.8s-0.1,0.6-0.3,0.8
			c-0.2,0.2-0.4,0.3-0.8,0.3h-13.6v36.2c0,0.3-0.1,0.7-0.3,0.9c-0.2,0.2-0.4,0.3-0.9,0.3C628.7,201.4,628.4,201.2,628.2,201z"/>
		<path class="st0" d="M660.4,201c-0.2-0.2-0.3-0.6-0.3-0.9v-37.4c0-0.3,0.1-0.7,0.3-0.9c0.2-0.2,0.4-0.3,0.9-0.3
			c0.3,0,0.6,0.1,0.8,0.3c0.2,0.2,0.3,0.6,0.3,0.9v37.4c0,0.3-0.1,0.7-0.3,0.9c-0.2,0.2-0.4,0.3-0.8,0.3
			C660.8,201.4,660.6,201.2,660.4,201z"/>
		<path class="st0" d="M682.8,200.7c-0.3-0.2-0.4-0.6-0.4-0.9v-36.9c0-0.3,0.1-0.7,0.4-0.9s0.6-0.3,1-0.3h21.5
			c0.3,0,0.6,0.1,0.8,0.3c0.2,0.2,0.3,0.4,0.3,0.8s-0.1,0.6-0.3,0.8c-0.2,0.2-0.4,0.3-0.8,0.3h-20.6v16.2h19.4
			c0.3,0,0.6,0.1,0.8,0.3c0.2,0.2,0.2,0.4,0.2,0.8s-0.1,0.6-0.2,0.8c-0.2,0.2-0.4,0.3-0.8,0.3h-19.4V199h20.6c0.3,0,0.6,0.1,0.8,0.2
			c0.2,0.2,0.3,0.4,0.3,0.8s-0.1,0.6-0.3,0.8c-0.2,0.2-0.4,0.3-0.8,0.3h-21.5C683.3,201.1,683,201,682.8,200.7z"/>
		<path class="st0" d="M759.7,161.8c0.2,0.2,0.3,0.6,0.3,0.9V200c0,0.9-0.4,1.3-1.2,1.3c-0.7,0-1-0.4-1-1.3v-33.5l-14.4,27.9
			c-0.1,0.3-0.3,0.6-0.6,0.7c-0.2,0.1-0.6,0.2-0.8,0.2c-0.7,0-1.1-0.3-1.4-1l-14.5-27.7v33.2c0,0.9-0.3,1.3-1.1,1.3
			c-0.8,0-1.1-0.4-1.1-1.3v-37.4c0-0.3,0.1-0.7,0.3-0.9c0.2-0.2,0.6-0.3,0.9-0.3c0.2,0,0.4,0.1,0.7,0.2c0.2,0.1,0.3,0.3,0.6,0.8
			l15.7,30.3l15.6-30.3c0.2-0.3,0.3-0.7,0.6-0.8c0.2-0.1,0.4-0.2,0.7-0.2C759.3,161.4,759.5,161.5,759.7,161.8z"/>
		<path class="st0" d="M806.1,184.3c1.2,1.7,1.9,3.7,1.9,6.1c0,3.5-1.1,6.1-3.3,7.9c-2.2,1.8-5.4,2.7-9.5,2.7h-13.7
			c-0.3,0-0.7-0.1-1-0.4c-0.3-0.3-0.4-0.6-0.4-0.9v-36.9c0-0.3,0.1-0.7,0.4-0.9c0.3-0.2,0.6-0.3,1-0.3h13.2c4,0,7,0.9,9.3,2.7
			c2.1,1.8,3.2,4.3,3.2,7.7c0,2.1-0.6,4-1.7,5.5c-1.1,1.6-2.7,2.7-4.6,3.3C803.1,181.5,804.9,182.6,806.1,184.3z M782.5,179.9h11.9
			c3.3,0,5.9-0.7,7.7-2.1c1.8-1.4,2.7-3.5,2.7-6.1c0-5.2-3.5-7.8-10.3-7.8h-11.9v16.1H782.5z M803,196.9c1.7-1.3,2.6-3.5,2.6-6.2
			c0-2.8-0.9-4.9-2.6-6.4c-1.8-1.4-4.3-2.1-7.7-2.1h-12.7v16.7h12.7C798.6,198.9,801.3,198.2,803,196.9z"/>
		<path class="st0" d="M855.5,200.4c0,0.2-0.1,0.4-0.3,0.7c-0.2,0.2-0.4,0.3-0.8,0.3c-0.3,0-0.7-0.2-1-0.6l-7.6-12.4
			c-1.1-1.9-2.3-3.1-3.6-3.8c-1.2-0.7-3-1-5.1-1h-8.4V200c0,0.3-0.1,0.7-0.3,0.9c-0.2,0.2-0.4,0.3-0.8,0.3s-0.7-0.1-0.9-0.3
			c-0.2-0.2-0.3-0.6-0.3-1v-37.1c0-0.3,0.1-0.7,0.4-0.9c0.3-0.2,0.6-0.3,1-0.3h13.9c4,0,7.2,0.9,9.4,2.8c2.2,1.9,3.3,4.6,3.3,8.1
			c0,3.2-1,5.7-2.9,7.6c-1.9,1.9-4.7,2.9-8.3,3.1c0.9,0.3,1.7,0.8,2.3,1.6c0.8,0.7,1.4,1.7,2.2,2.9l7.5,12.2
			C855.5,200,855.5,200.2,855.5,200.4z M841.8,181.4c6.8,0,10.3-3,10.3-8.9c0-2.9-0.9-5.1-2.6-6.5c-1.7-1.4-4.2-2.1-7.7-2.1h-12.9
			v17.5H841.8z"/>
		<path class="st0" d="M874.1,200.7c-0.3-0.2-0.4-0.6-0.4-0.9v-36.9c0-0.3,0.1-0.7,0.4-0.9s0.6-0.3,1-0.3h21.5
			c0.3,0,0.6,0.1,0.8,0.3c0.2,0.2,0.3,0.4,0.3,0.8s-0.1,0.6-0.3,0.8c-0.2,0.2-0.4,0.3-0.8,0.3H876v16.2h19.4c0.3,0,0.6,0.1,0.8,0.3
			c0.2,0.2,0.2,0.4,0.2,0.8s-0.1,0.6-0.2,0.8c-0.2,0.2-0.4,0.3-0.8,0.3H876V199h20.6c0.3,0,0.6,0.1,0.8,0.2c0.2,0.2,0.3,0.4,0.3,0.8
			s-0.1,0.6-0.3,0.8c-0.2,0.2-0.4,0.3-0.8,0.3h-21.5C874.7,201.1,874.4,201,874.1,200.7z"/>
		<path class="st0" d="M963,197c0.4,0.4,0.7,1,0.7,1.8c0,1.6-0.9,2.5-2.8,2.5h-21.6c-0.8,0-1.4-0.2-1.9-0.7c-0.4-0.4-0.7-1-0.7-1.8
			c0-0.9,0.3-1.7,1-2.3l13.2-14.4c1.8-1.9,3-3.7,3.8-5.2c0.8-1.6,1.2-3.1,1.2-4.7c0-2-0.6-3.5-1.7-4.6c-1.1-1.1-2.8-1.6-4.8-1.6
			c-3.1,0-6.4,1.2-9.5,3.7c-0.4,0.2-0.8,0.4-1,0.6c-0.2,0.1-0.6,0.2-0.9,0.2c-0.6,0-1-0.2-1.3-0.8s-0.6-1.1-0.6-1.8
			c0-0.9,0.3-1.7,1.1-2.2c1.6-1.3,3.5-2.5,5.7-3.2s4.5-1.2,6.7-1.2c3.7,0,6.6,0.9,8.8,2.8c2.2,1.9,3.2,4.5,3.2,7.6
			c0,2.2-0.4,4.5-1.4,6.5c-1,2-2.7,4.3-4.9,6.9l-10.6,11.3h16.4C961.9,196.3,962.6,196.6,963,197z"/>
		<path class="st0" d="M982,196.4c-2.5-3.5-3.6-8.5-3.6-14.9c0-6.6,1.2-11.6,3.6-15.1s5.9-5.1,10.5-5.1c4.6,0,8,1.7,10.5,5.1
			c2.5,3.5,3.6,8.4,3.6,15.1c0,6.6-1.2,11.6-3.6,15.1c-2.5,3.5-5.9,5.1-10.5,5.1C987.9,201.7,984.3,199.8,982,196.4z M998.7,193.2
			c1.3-2.5,2-6.5,2-11.8s-0.7-9.3-2-11.8c-1.3-2.5-3.5-3.7-6.4-3.7c-2.9,0-5,1.2-6.4,3.7c-1.3,2.5-2,6.4-2,11.8
			c0,5.4,0.7,9.3,2,11.8c1.3,2.6,3.5,3.8,6.4,3.8C995.4,196.9,997.4,195.7,998.7,193.2z"/>
		<path class="st0" d="M1048.2,197c0.4,0.4,0.7,1,0.7,1.8c0,1.6-0.9,2.5-2.7,2.5h-18.6c-1.8,0-2.8-0.8-2.8-2.5
			c0-0.8,0.2-1.3,0.7-1.8s1.1-0.7,2-0.7h6.5v-27.9l-5.8,3.7c-0.3,0.2-0.8,0.3-1.1,0.3c-0.7,0-1.2-0.3-1.7-0.9
			c-0.4-0.6-0.7-1.2-0.7-1.9c0-0.9,0.3-1.6,1.1-2l8.6-5.5c0.9-0.6,1.7-0.8,2.5-0.8c0.8,0,1.4,0.2,2,0.8c0.6,0.6,0.8,1.2,0.8,2.1v32
			h6.5C1047.1,196.3,1047.8,196.6,1048.2,197z"/>
		<path class="st0" d="M1088.2,166.2c2.7,3.3,3.9,8.1,3.9,14.3c0,4.3-0.7,8.1-1.9,11.3c-1.2,3.1-3,5.6-5.4,7.2
			c-2.3,1.7-5,2.6-8.3,2.6c-2.1,0-4.2-0.4-6.4-1.2c-2.1-0.8-3.9-1.9-5.5-3.2c-0.8-0.7-1.1-1.3-1.1-2.2c0-0.7,0.2-1.2,0.6-1.7
			c0.3-0.4,0.8-0.7,1.3-0.7c0.3,0,0.7,0.1,0.9,0.2c0.3,0.1,0.6,0.3,1,0.6c3.1,2.5,6.1,3.7,8.9,3.7c3.1,0,5.5-1.4,7.2-4.2
			c1.7-2.9,2.6-6.8,2.6-11.9v-0.1c-0.8,1.9-2.1,3.5-4,4.5c-1.9,1.1-3.9,1.7-6.2,1.7s-4.5-0.6-6.4-1.6c-1.9-1.1-3.3-2.6-4.3-4.5
			c-1-1.9-1.6-4.1-1.6-6.6c0-2.5,0.6-4.7,1.7-6.6c1.1-1.9,2.7-3.5,4.6-4.6c2-1.1,4.2-1.7,6.7-1.7
			C1081.8,161.2,1085.5,162.9,1088.2,166.2z M1082.9,179.8c1.4-1.4,2.2-3.3,2.2-5.8c0-2.5-0.8-4.3-2.2-5.8c-1.4-1.4-3.3-2.2-5.8-2.2
			c-2.3,0-4.1,0.8-5.6,2.2c-1.4,1.4-2.1,3.5-2.1,5.8c0,2.3,0.7,4.3,2.1,5.8s3.2,2.2,5.6,2.2C1079.5,181.9,1081.5,181.3,1082.9,179.8
			z"/>
	</g>
</g>
<g>
	<g>
		<g>
			<g>
				<path class="st1" d="M39.2,217.1c-2.9-0.7-5.3-1.6-7.2-2.7c-0.9-0.5-1.3-1.4-1.3-2.6c0-0.8,0.3-1.5,0.9-2.1s1.3-0.9,2.1-0.9
					c0.4,0,0.8,0.1,1.3,0.3c3.7,1.9,7.8,2.8,12.2,2.8c7.5,0,11.3-4,11.3-12V195c-3.5,3.7-7.7,5.6-12.6,5.6c-2.9,0-5.7-0.7-8.4-2.2
					s-5-3.6-6.7-6.5c-1.8-2.9-2.6-6.4-2.6-10.5s0.9-7.6,2.6-10.5c1.8-2.9,4-5,6.7-6.5c2.7-1.4,5.5-2.2,8.4-2.2
					c4.9,0,9.1,1.9,12.6,5.6V166c0-0.9,0.3-1.7,1-2.4s1.4-1,2.4-1s1.7,0.3,2.4,1c0.7,0.7,1,1.5,1,2.4v32.9c0,6.2-1.5,10.9-4.5,14.3
					c-3,3.3-7.3,5-12.8,5C44.9,218.2,42.1,217.8,39.2,217.1z M53.3,192.9c1.8-1,3.5-2.3,5.1-4v-15.2c-1.6-1.7-3.3-3-5.1-4
					s-3.8-1.5-6.1-1.5c-3.7,0-6.7,1.1-9,3.4c-2.3,2.2-3.5,5.5-3.5,9.7s1.2,7.5,3.5,9.7s5.3,3.4,9,3.4
					C49.5,194.4,51.5,193.9,53.3,192.9z"/>
				<path class="st1" d="M77.7,199.9c-0.6-0.6-1-1.4-1-2.4v-31.6c0-0.9,0.3-1.7,1-2.4c0.6-0.7,1.4-1,2.4-1c0.9,0,1.7,0.3,2.4,1
					c0.7,0.7,1,1.5,1,2.4v3.2c3.4-4.6,7.3-6.9,11.6-6.9h0.4c0.9,0,1.7,0.3,2.3,1s0.9,1.4,0.9,2.4c0,0.9-0.3,1.7-1,2.3
					s-1.4,0.9-2.4,0.9h-0.4c-2.4,0-4.5,0.6-6.5,1.7c-2,1.2-3.6,2.7-4.9,4.8v22.4c0,0.9-0.3,1.7-1,2.4c-0.7,0.6-1.5,1-2.4,1
					C79.1,200.9,78.3,200.5,77.7,199.9z"/>
				<path class="st1" d="M110.5,198.8c-2.8-1.6-5.1-3.9-6.6-6.9c-1.6-3-2.3-6.4-2.3-10.2s0.8-7.2,2.3-10.2c1.6-3,3.8-5.3,6.6-6.9
					s6.2-2.4,9.9-2.4c3.7,0,7,0.8,9.9,2.4c2.9,1.6,5.1,3.9,6.6,6.9s2.4,6.4,2.4,10.2s-0.8,7.2-2.4,10.2c-1.6,3-3.8,5.3-6.6,6.9
					c-2.8,1.6-6.1,2.4-9.9,2.4C116.7,201.2,113.3,200.4,110.5,198.8z M126.2,193.7c1.8-0.9,3.4-2.4,4.6-4.4c1.2-2,1.8-4.6,1.8-7.7
					c0-3.1-0.6-5.6-1.8-7.6s-2.7-3.5-4.6-4.4c-1.8-0.9-3.8-1.4-5.8-1.4c-2.1,0-4,0.4-5.9,1.4c-1.8,0.9-3.3,2.4-4.5,4.4
					s-1.8,4.5-1.8,7.6s0.6,5.6,1.8,7.7c1.2,2,2.7,3.5,4.5,4.4s3.8,1.4,5.9,1.4C122.5,195.1,124.4,194.6,126.2,193.7z"/>
				<path class="st1" d="M154.4,199.3c-2-1.3-3.5-3-4.6-5.2s-1.6-4.6-1.6-7.3v-20.9c0-0.9,0.3-1.7,1-2.4s1.5-1,2.4-1s1.7,0.3,2.4,1
					s1,1.4,1,2.4V186c0,6,2.7,9,8.1,9c2.5,0,4.6-0.6,6.6-1.9c1.9-1.3,3.8-3,5.5-5.2v-22.1c0-0.9,0.3-1.7,1-2.4s1.5-1,2.4-1
					s1.7,0.3,2.4,1s1,1.4,1,2.4v31.6c0,0.9-0.3,1.7-1,2.4s-1.4,1-2.4,1c-0.9,0-1.7-0.3-2.4-1s-1-1.5-1-2.4v-3
					c-1.9,2.1-3.9,3.7-6,4.9c-2.2,1.2-4.7,1.8-7.7,1.8C158.8,201.2,156.4,200.6,154.4,199.3z"/>
				<path class="st1" d="M194.5,216.8c-0.6-0.7-1-1.5-1-2.4v-48.6c0-0.9,0.3-1.7,1-2.4s1.4-1,2.4-1c0.9,0,1.7,0.3,2.4,1
					c0.7,0.6,1,1.4,1,2.4v1.9c3.6-3.7,7.8-5.6,12.6-5.6c3.1,0,5.9,0.8,8.7,2.3c2.7,1.6,4.9,3.8,6.6,6.8s2.5,6.4,2.5,10.4
					s-0.9,7.5-2.5,10.4c-1.7,3-3.9,5.2-6.6,6.8c-2.7,1.6-5.6,2.3-8.7,2.3c-4.8,0-9-1.9-12.6-5.6v18.8c0,1-0.3,1.8-1,2.4
					s-1.4,1-2.4,1C195.9,217.8,195.1,217.5,194.5,216.8z M220.7,191.5c2.2-2.3,3.3-5.6,3.3-9.8s-1.1-7.5-3.3-9.8s-5.1-3.5-8.8-3.5
					c-2.3,0-4.4,0.5-6.4,1.5s-3.8,2.4-5.3,4v15.5c1.5,1.7,3.3,3,5.3,4s4.1,1.5,6.4,1.5C215.5,195,218.5,193.8,220.7,191.5z"/>
			</g>
		</g>
		<g>
			<g>
				<path class="st0" d="M33.1,113.4c-3.1,0-6.3-1-9-3.1c-7.3-5.6-13.4-12.9-17.5-21.2C2.3,80.7,0,71.1,0,61.5C0,27.6,27.6,0,61.5,0
					S123,27.6,123,61.5c0,8.2-6.6,14.8-14.8,14.8s-14.8-6.6-14.8-14.8c0-17.6-14.3-31.9-31.9-31.9S29.6,43.9,29.6,61.5
					c0,10,4.6,19.2,12.5,25.4c6.5,5,7.7,14.3,2.8,20.8C42,111.4,37.6,113.4,33.1,113.4z"/>
			</g>
			<g>
				<path class="st0" d="M128.8,115c-2.8,0-5.7-0.8-8.3-2.5c-17-11.5-27.1-30.5-27.1-51C93.4,27.6,121,0,154.9,0
					s61.5,27.6,61.5,61.5c0,8.2-6.6,14.8-14.8,14.8s-14.8-6.6-14.8-14.8c0-17.6-14.3-31.9-31.9-31.9S123,43.9,123,61.5
					c0,10.6,5.3,20.5,14.1,26.5c6.8,4.6,8.6,13.8,4,20.6C138.2,112.8,133.6,115,128.8,115z"/>
			</g>
			<g>
				<g>
					
						<linearGradient id="SVGID_1_" gradientUnits="userSpaceOnUse" x1="204.6328" y1="729.1777" x2="283.6435" y2="635.0164" gradientTransform="matrix(1 0 0 1 0 -624)">
						<stop  offset="0.499" style="stop-color:#FFFFFF"/>
						<stop  offset="0.5805" style="stop-color:#FBFBFB"/>
						<stop  offset="0.7044" style="stop-color:#E9E9EA"/>
						<stop  offset="0.8545" style="stop-color:#C9CACD"/>
						<stop  offset="0.9995" style="stop-color:#A6A7AA"/>
					</linearGradient>
					<path class="st2" d="M222.3,115.1c-2.8,0-5.7-0.8-8.3-2.5c-17-11.5-27.2-30.5-27.2-51c0-33.9,27.6-61.5,61.5-61.5
						s61.5,27.6,61.5,61.5c0,8.2-6.6,14.8-14.8,14.8s-14.8-6.6-14.8-14.8c0-17.6-14.3-31.9-31.9-31.9S216.4,44,216.4,61.6
						c0,10.6,5.3,20.5,14.1,26.5c6.8,4.6,8.6,13.8,4,20.6C231.7,112.8,227,115.1,222.3,115.1z"/>
				</g>
			</g>
			<path class="st0" d="M381.7,108.2c0.8-0.7,1.7-1.5,2.5-2.2c11.9-11.3,18.6-26.6,19-43.1c0.2-8.2-6.3-15-14.5-15.1
				c-8.2-0.2-15,6.3-15.1,14.5c-0.2,8.5-3.7,16.4-9.9,22.3c-6.2,5.9-14.2,9-22.8,8.8c-17.6-0.4-31.6-15.1-31.1-32.7
				c0.4-17.3,14.6-31.2,31.9-31.2c0.2,0,0.5,0,0.8,0c0.1,0,0.2,0,0.4,0c8,0,14.6-6.4,14.8-14.4C357.9,7,351.4,0.2,343.2,0
				c-33.9-0.8-62.1,26.1-62.9,60s26.1,62.1,60,62.9c0.5,0,1,0,1.4,0l0,0c17.6,0,31.9,14.3,31.9,31.9s-14.3,31.9-31.9,31.9
				s-31.9-14.3-31.9-31.9c0-8.2-6.6-14.8-14.8-14.8s-14.8,6.6-14.8,14.8c0,33.9,27.6,61.5,61.5,61.5s61.5-27.6,61.5-61.5
				C403.3,136.3,394.9,119.5,381.7,108.2z"/>
			<g>
				<circle class="st0" cx="421.5" cy="95.2" r="13.6"/>
			</g>
		</g>
	</g>
</g>
</svg>
