<svg xmlns="http://www.w3.org/2000/svg" id="logo_mg_white" width="166.93" height="39.588" viewBox="0 0 166.93 39.588">
    <defs>
        <style>
            .cls-1{fill:#fff;fill-rule:evenodd}
        </style>
    </defs>
    <g id="Grupo_1" data-name="Grupo 1">
        <path id="Trazado_1" d="M69.823 20.3a11.181 11.181 0 0 0 3.935-8.284 2.708 2.708 0 1 0-5.414-.126 5.835 5.835 0 1 1-5.836-5.973h.2A2.706 2.706 0 1 0 62.774.5a11.233 11.233 0 0 0-8.811 3.943 11.214 11.214 0 0 0-17.083 0 11.212 11.212 0 0 0-17.085 0A11.244 11.244 0 1 0 4.412 20.685a2.707 2.707 0 1 0 3.293-4.3 5.836 5.836 0 1 1 9.381-4.636 11.246 11.246 0 0 0 4.958 9.327 2.707 2.707 0 0 0 3.031-4.485 5.836 5.836 0 1 1 9.1-4.845 11.242 11.242 0 0 0 4.971 9.334 2.707 2.707 0 1 0 3.023-4.48 5.842 5.842 0 0 1-2.582-4.846 5.836 5.836 0 0 1 11.672 0c0 .048.012.094.015.142A11.256 11.256 0 0 0 62.246 23h.263a5.836 5.836 0 1 1-5.836 5.835 2.707 2.707 0 0 0-5.414 0A11.25 11.25 0 1 0 69.823 20.3" class="cls-1" data-name="Trazado 1" transform="translate(0 -.502)"/>
    </g>
    <path id="Trazado_2" d="M69.391 14.676a2.5 2.5 0 0 1 1.765 4.26 2.5 2.5 0 1 1-3.531-3.531 2.409 2.409 0 0 1 1.765-.73m9.841 3.389v.619a1.017 1.017 0 0 1-.321.762 1.077 1.077 0 0 1-.774.309 1.055 1.055 0 0 1-1.072-1.071V3.226a1.072 1.072 0 0 1 .309-.773 1.022 1.022 0 0 1 .763-.321 1.059 1.059 0 0 1 1.1 1.1v5.829A5.472 5.472 0 0 1 83.3 7.252 5.579 5.579 0 0 1 86.1 8a5.685 5.685 0 0 1 2.142 2.19 6.689 6.689 0 0 1 .822 3.368 6.686 6.686 0 0 1-.822 3.37 5.679 5.679 0 0 1-2.142 2.196 5.583 5.583 0 0 1-2.8.749 5.466 5.466 0 0 1-4.071-1.809m6.6-1.335a4.4 4.4 0 0 0 1.071-3.167 4.4 4.4 0 0 0-1.071-3.167 3.753 3.753 0 0 0-2.835-1.12 4.519 4.519 0 0 0-2.061.488 5.907 5.907 0 0 0-1.7 1.3v5a5.872 5.872 0 0 0 1.7 1.3 4.519 4.519 0 0 0 2.061.488 3.737 3.737 0 0 0 2.834-1.121m6.572 2.715a1.035 1.035 0 0 1-.31-.763V8.467a1.077 1.077 0 0 1 .31-.774 1.017 1.017 0 0 1 .762-.321 1.1 1.1 0 0 1 1.1 1.1V9.49A4.694 4.694 0 0 1 98 7.252h.119a1 1 0 0 1 .749.31 1.055 1.055 0 0 1 .3.762.96.96 0 0 1-.309.738 1.12 1.12 0 0 1-.786.285h-.123a4.059 4.059 0 0 0-2.1.56 4.814 4.814 0 0 0-1.595 1.536v7.238a1.017 1.017 0 0 1-.321.764 1.076 1.076 0 0 1-.774.309 1.035 1.035 0 0 1-.762-.309m10.6-.358a5.346 5.346 0 0 1-2.132-2.226 7.05 7.05 0 0 1-.749-3.3 7.042 7.042 0 0 1 .749-3.3A5.34 5.34 0 0 1 103 8.038a6.915 6.915 0 0 1 6.4 0 5.42 5.42 0 0 1 2.145 2.226 6.953 6.953 0 0 1 .762 3.3 6.961 6.961 0 0 1-.762 3.3 5.427 5.427 0 0 1-2.143 2.226 6.917 6.917 0 0 1-6.406 0m5.084-1.644a3.628 3.628 0 0 0 1.477-1.427 4.78 4.78 0 0 0 .583-2.478 4.73 4.73 0 0 0-.583-2.452 3.563 3.563 0 0 0-1.477-1.416 4.165 4.165 0 0 0-1.869-.441 4.216 4.216 0 0 0-1.894.441 3.479 3.479 0 0 0-1.464 1.416 4.8 4.8 0 0 0-.572 2.454 4.828 4.828 0 0 0 .572 2.476 3.537 3.537 0 0 0 1.464 1.429 4.129 4.129 0 0 0 3.763 0m7.56 2a1.035 1.035 0 0 1-.31-.763V3.227a1.071 1.071 0 0 1 .31-.774 1.017 1.017 0 0 1 .762-.321 1.1 1.1 0 0 1 1.1 1.1v9.739l5.669-5.238a1.092 1.092 0 0 1 .714-.309.969.969 0 0 1 .8.309 1.134 1.134 0 0 1 .25.736 1.16 1.16 0 0 1-.406.812l-3.429 3.068 4.309 5.716a1.042 1.042 0 0 1 .239.642.987.987 0 0 1-.31.762 1.115 1.115 0 0 1-.785.286 1.073 1.073 0 0 1-.476-.118 1.168 1.168 0 0 1-.4-.335l-4.1-5.572-2.077 1.881v3.071a1.019 1.019 0 0 1-.321.763 1.074 1.074 0 0 1-.774.309 1.035 1.035 0 0 1-.762-.309m13.348-1.227a6.348 6.348 0 0 1-1.632-4.656 7.764 7.764 0 0 1 .619-3.119 5.3 5.3 0 0 1 1.906-2.309 5.469 5.469 0 0 1 3.167-.881 5.541 5.541 0 0 1 3.048.82 5.318 5.318 0 0 1 1.952 2.191 6.735 6.735 0 0 1 .668 2.989 1.041 1.041 0 0 1-1.1 1.072h-8.069a3.924 3.924 0 0 0 1.238 2.6 4.273 4.273 0 0 0 2.931.929 6.65 6.65 0 0 0 3.214-.738.946.946 0 0 1 .429-.1.966.966 0 0 1 .667.262.869.869 0 0 1 .285.667 1.029 1.029 0 0 1-.619.881 8.616 8.616 0 0 1-1.833.786 8.638 8.638 0 0 1-2.334.262 6.082 6.082 0 0 1-4.537-1.656zm7.584-5.654a3.8 3.8 0 0 0-.607-1.954 3.266 3.266 0 0 0-1.32-1.155 3.644 3.644 0 0 0-3.192 0 3.2 3.2 0 0 0-1.309 1.155 3.892 3.892 0 0 0-.6 1.953h7.026zm5.311 6.881a1.035 1.035 0 0 1-.31-.763V8.467a1.077 1.077 0 0 1 .31-.774 1.017 1.017 0 0 1 .762-.321 1.1 1.1 0 0 1 1.1 1.1V9.49a4.692 4.692 0 0 1 3.737-2.238h.119a1 1 0 0 1 .749.31 1.055 1.055 0 0 1 .3.762.957.957 0 0 1-.309.738 1.12 1.12 0 0 1-.786.286h-.119a4.06 4.06 0 0 0-2.1.56 4.814 4.814 0 0 0-1.595 1.536v7.238a1.017 1.017 0 0 1-.322.764 1.074 1.074 0 0 1-.774.309 1.035 1.035 0 0 1-.762-.309m8.407-.642a.909.909 0 0 1-.4-.786.952.952 0 0 1 .262-.667.862.862 0 0 1 .666-.287 1.061 1.061 0 0 1 .429.1 9.42 9.42 0 0 0 1.525.524 7.067 7.067 0 0 0 1.714.19q2.643 0 2.643-1.691a.9.9 0 0 0-.608-.833 12.33 12.33 0 0 0-1.987-.642 17.989 17.989 0 0 1-2.322-.691 4.067 4.067 0 0 1-1.571-1.083 2.75 2.75 0 0 1-.656-1.918 3.434 3.434 0 0 1 1.2-2.713 5.088 5.088 0 0 1 3.442-1.048 9.924 9.924 0 0 1 3.453.6.9.9 0 0 1 .513.357.933.933 0 0 1-.096 1.204.9.9 0 0 1-.679.285 1.359 1.359 0 0 1-.31-.048 9.136 9.136 0 0 0-2.715-.428 3.729 3.729 0 0 0-2.013.464 1.386 1.386 0 0 0-.725 1.2 1.1 1.1 0 0 0 .666 1.048 9.529 9.529 0 0 0 2.072.642 20.3 20.3 0 0 1 2.286.7 3.779 3.779 0 0 1 1.511 1.084 2.94 2.94 0 0 1 .631 1.977 3.145 3.145 0 0 1-1.2 2.523 5.166 5.166 0 0 1-3.394 1 8.862 8.862 0 0 1-4.334-1.072" class="cls-1" data-name="Trazado 2" transform="translate(7.708 .246)"/>
</svg>
